<svg xmlns="http://www.w3.org/2000/svg" viewBox="0 0 48 48" fill="none">
  <defs>
    <linearGradient id="g" x1="0" y1="0" x2="1" y2="1">
      <stop offset="0%" stop-color="#2563eb"/>
      <stop offset="100%" stop-color="#0d9488"/>
    </linearGradient>
  </defs>
  <!-- git icon base -->
  <circle cx="24" cy="38" r="3" fill="url(#g)"/>
  <circle cx="18" cy="38" r="2" fill="url(#g)" opacity="0.6"/>
  <line x1="20" y1="38" x2="22" y2="38" stroke="url(#g)" stroke-width="1.5"/>
  <!-- trunk -->
  <line x1="24" y1="35" x2="24" y2="22" stroke="url(#g)" stroke-width="2" stroke-linecap="round"/>
  <!-- branch L1 -->
  <line x1="24" y1="28" x2="16" y2="22" stroke="url(#g)" stroke-width="1.5" stroke-linecap="round"/>
  <line x1="24" y1="28" x2="32" y2="20" stroke="url(#g)" stroke-width="1.5" stroke-linecap="round"/>
  <!-- branch L2 -->
  <line x1="16" y1="22" x2="10" y2="16" stroke="url(#g)" stroke-width="1.2" stroke-linecap="round"/>
  <line x1="16" y1="22" x2="14" y2="14" stroke="url(#g)" stroke-width="1" stroke-linecap="round" opacity="0.7"/>
  <line x1="24" y1="22" x2="18" y2="12" stroke="url(#g)" stroke-width="1.2" stroke-linecap="round"/>
  <line x1="24" y1="22" x2="28" y2="14" stroke="url(#g)" stroke-width="1" stroke-linecap="round" opacity="0.7"/>
  <line x1="32" y1="20" x2="38" y2="14" stroke="url(#g)" stroke-width="1.2" stroke-linecap="round"/>
  <!-- nodes L3 -->
  <circle cx="10" cy="16" r="2.5" fill="#2563eb"/>
  <circle cx="14" cy="14" r="2" fill="#0d9488" opacity="0.8"/>
  <circle cx="18" cy="12" r="3" fill="#2563eb"/>
  <circle cx="28" cy="14" r="2" fill="#0d9488" opacity="0.8"/>
  <circle cx="38" cy="14" r="2.5" fill="#2563eb"/>
  <!-- root node -->
  <circle cx="24" cy="22" r="3.5" fill="url(#g)"/>
  <!-- connections -->
  <line x1="10" y1="16" x2="14" y2="14" stroke="#2563eb" stroke-width="0.8" opacity="0.5"/>
  <line x1="14" y1="14" x2="18" y2="12" stroke="#2563eb" stroke-width="0.8" opacity="0.5"/>
  <line x1="18" y1="12" x2="28" y2="14" stroke="#0d9488" stroke-width="0.8" opacity="0.4"/>
</svg>
